# Blender v2.93.0 OBJ File: 'trangleGrass.blend'
# www.blender.org
mtllib trangleGrass03.mtl
o Cone
v 0.080290 0.000013 -0.103756
v 0.066597 0.000013 0.132220
v 0.066597 0.000013 0.132220
v 0.080290 0.000013 -0.103756
v -0.118290 0.000013 -0.012575
v -0.118290 0.000013 -0.012575
v 0.024571 1.447989 0.030761
v 0.080290 0.000013 -0.103756
v 0.066597 0.000013 0.132220
v 0.066597 0.000013 0.132220
v 0.080290 0.000013 -0.103756
v -0.118290 0.000013 -0.012575
v 0.024571 1.447989 0.030761
vt 0.471731 0.341844
vt 0.250000 0.250000
vt 0.485388 0.296822
vt 0.050447 0.116663
vt 0.028269 0.158156
vt 0.116663 0.449553
vt 0.158156 0.471731
vt 0.158156 0.471731
vt 0.116663 0.449553
vt 0.028269 0.158156
vt 0.050447 0.116663
vt 0.485388 0.296822
vt 0.471731 0.341844
vt 0.616663 0.449553
vt 0.971731 0.341844
vt 0.550447 0.116663
vn 0.9978 0.0330 0.0579
vn -0.6161 0.0372 0.7867
vn -0.4163 0.0682 -0.9067
vn 0.0000 0.0000 1.0000
vn 0.0000 -1.0000 -0.0000
usemtl None
s off
f 1/1/1 7/2/1 2/3/1
f 2/4/2 7/2/2 5/5/2
f 5/6/3 7/2/3 1/7/3
f 5/6/4 1/7/4 4/8/4 6/9/4
f 2/4/4 5/5/4 6/10/4 3/11/4
f 1/1/4 2/3/4 3/12/4 4/13/4
f 6/14/5 4/15/5 3/16/5
l 1 8
l 2 9
l 3 10
l 4 11
l 6 12
l 7 13
